# AST/ASF file generated using VICON BodyLanguage
# -----------------------------------------------
:version 1.10
:name VICON
:units
  mass 1.0
  length 0.45
  angle deg
:documentation
   .ast/.asf automatically generated from VICON data using
   VICON BodyBuilder and BodyLanguage model FoxedUp or BRILLIANT.MOD
:root
   order TX TY TZ RX RY RZ
   axis XYZ
   position 0 0 0  
   orientation 0 0 0 
:bonedata
  begin
     id 1 
     name lhipjoint
     direction 0.603808 -0.713975 0.35448 
     length 2.2025 
     axis 0 0 0  XYZ
  end
  begin
     id 2 
     name lfemur
     direction 0.34202 -0.939693 0  
     length 6.55877  
     axis 0 0 20  XYZ
    dof rx ry rz
    limits (-160.0 20.0)
           (-70.0 70.0)
           (-60.0 70.0)
  end
  begin
     id 3 
     name ltibia
     direction 0.34202 -0.939693 0   
     length 6.80302   
     axis 0 0 20   XYZ
    dof rx
    limits (-10.0 170.0)
  end
  begin
     id 4 
     name lfoot
     direction 0.091848 -0.25235 0.963267   
     length 2.03446   
     axis -90 7.62852e-016 20   XYZ
    dof rx rz
    limits (-45.0 90.0)
           (-70.0 20.0)
  end
  begin
     id 5 
     name ltoes
     direction 1.53608e-011 -4.21925e-011 1   
     length 1.02033   
     axis -90 7.62852e-016 20   XYZ
    dof rx
    limits (-90.0 20.0)
  end
  begin
     id 6 
     name rhipjoint
     direction -0.587285 -0.724947 0.359928   
     length 2.16916  
     axis 0 0 0  XYZ 
  end
  begin
     id 7 
     name rfemur
     direction -0.34202 -0.939693 0   
     length 6.43173   
     axis 0 0 -20   XYZ
    dof rx ry rz
    limits (-160.0 20.0)
           (-70.0 70.0)
           (-70.0 60.0)
  end
  begin
     id 8 
     name rtibia
     direction -0.34202 -0.939693 0   
     length 6.70662   
     axis 0 0 -20   XYZ
    dof rx
    limits (-10.0 170.0)
 end
 begin
     id 9 
     name rfoot
     direction -0.11854 -0.325686 0.938018   
     length 2.0773  
     axis -90 -7.62852e-016 -20   XYZ
    dof rx rz
    limits (-45.0 90.0)
           (-20.0 70.0)
  end
  begin
     id 10 
     name rtoes
     direction -1.53547e-011 -4.21838e-011 1   
     length 1.03267   
     axis -90 -7.62852e-016 -20   XYZ
    dof rx
    limits (-90.0 20.0)
  end
  begin
     id 11 
     name lowerback
     direction -0.0286554 0.999539 0.0100613   
     length 2.08751   
     axis 0 0 0   XYZ
    dof rx ry rz
    limits (-20.0 45.0)
           (-30.0 30.0)
           (-30.0 30.0)
  end
  begin
     id 12 
     name upperback
     direction 0.0227093 0.999705 -0.00860929   
     length 2.08517   
     axis 0 0 0   XYZ
    dof rx ry rz
    limits (-20.0 45.0)
           (-30.0 30.0)
           (-30.0 30.0)
  end
  begin
     id 13 
     name thorax
     direction 0.0351627 0.999285 -0.013892   
     length 2.08412   
     axis 0 0 0   XYZ
    dof rx ry rz
    limits (-20.0 45.0)
           (-30.0 30.0)
           (-30.0 30.0)
  end
  begin
     id 14 
     name lowerneck
     direction -0.0696283 0.997344 0.0213922   
     length 1.44164   
     axis 0 0 0   XYZ
    dof rx ry rz
    limits (-20.0 45.0)
           (-30.0 30.0)
           (-30.0 30.0)
  end
  begin
     id 15 
     name upperneck
     direction 0.0531 0.990412 -0.127531   
     length 1.45022   
     axis 0 0 0   XYZ
    dof rx ry rz
    limits (-20.0 45.0)
           (-30.0 30.0)
           (-30.0 30.0)
  end
  begin
     id 16
     name head
     direction 0.0188154 0.998548 -0.0504727  
     length 1.45845  
     axis 0 0 0   XYZ
    dof rx ry rz
    limits (-20.0 45.0)
           (-30.0 30.0)
           (-30.0 30.0)
  end
  begin
     id 17 
     name lclavicle
     direction 0.961559 0.260051 0.088188  
     length 2.86057  
     axis 0 0 0   XYZ
    dof ry rz
    limits (-20.0 10.0)
           (0.0 20.0)
  end
  begin
     id 18 
     name lhumerus
     direction 1 -4.48959e-011 2.88185e-027   
     length 4.36901   
     axis 180 -30 -90   XYZ
    dof rx ry rz
    limits (-60.0 90.0)
           (-90.0 90.0)
           (-90.0 90.0)
  end
  begin
     id 19
     name lradius
     direction 1 -4.48965e-011 -3.92618e-028   
     length 3.21737   
     axis 180 -30 -90   XYZ
    dof rx
    limits (-10.0 170.0)
  end
  begin
     id 20
     name lwrist
     direction 1 -4.49037e-011 2.57246e-027   
     length 1.60869   
     axis -1.61769e-015 90 90   XYZ
    dof ry
    limits (-180.0 0.0)
 end
  begin
     id 21 
     name lhand
     direction 1 -4.48807e-011 5.12958e-027   
     length 0.564313   
     axis -3.27988e-015 90 90   XYZ
    dof rx rz
    limits (-90.0 90.0)
           (-45.0 45.0)
  end
  begin
     id 22 
     name lfingers
     direction 1 -4.48879e-011 1.02687e-026   
     length 0.454963   
     axis -6.5598e-015 90 90   XYZ
    dof rx
    limits (0.0 90.0)
  end
  begin
     id 23
     name lthumb
     direction 0.707107 -6.3475e-011 0.707107   
     length 0.653239   
     axis -90 45 2.19363e-014   XYZ
    dof rx rz
    limits (-45.0 45.0)
           (-45.0 45.0)
  end
  begin
     id 24 
     name rclavicle
     direction -0.954677 0.253915 0.155304   
     length 3.11497  
     axis 0 0 0   XYZ 
    dof ry rz
    limits (-10.0 20.0)
           (-20.0 0.0)
  end
  begin
     id 25 
     name rhumerus
     direction -1 -4.48958e-011 -8.20169e-028  
     length 4.34118   
     axis 180 30 90   XYZ
    dof rx ry rz
    limits (-90.0 60.0)
           (-90.0 90.0)
           (-90.0 90.0)
  end
  begin
     id 26 
     name rradius
     direction -1 -4.48978e-011 1.5676e-027   
     length 3.09531   
     axis 180 30 90   XYZ
    dof rx
    limits (-10.0 170.0)
  end
  begin
     id 27 
     name rwrist
     direction -1 -4.49001e-011 2.57123e-027   
     length 1.54765   
     axis -1.61769e-015 -90 -90   XYZ
    dof ry
    limits (-180.0 0.0)
  end
  begin
     id 28
     name rhand
     direction -1 -4.48847e-011 5.13225e-027   
     length 0.597446   
     axis -3.27988e-015 -90 -90   XYZ
    dof rx rz
    limits (-90.0 90.0)
           (-45.0 45.0)
  end
  begin
     id 29
     name rfingers
     direction -1 -4.49094e-011 1.02974e-026   
     length 0.481677   
     axis -6.5598e-015 -90 -90   XYZ
    dof rx
    limits (0.0 90.0)
  end
  begin
     id 30
     name rthumb
     direction -0.707107 -6.34859e-011 0.707107   
     length 0.691594   
     axis -90 -45 -2.19363e-014   XYZ
    dof rx rz
    limits (-45.0 45.0)
           (-45.0 45.0)
  end
:hierarchy
  begin
    root lhipjoint rhipjoint lowerback
    lhipjoint lfemur
    lfemur ltibia
    ltibia lfoot
    lfoot ltoes
    rhipjoint rfemur
    rfemur rtibia
    rtibia rfoot
    rfoot rtoes
    lowerback upperback
    upperback thorax
    thorax lowerneck lclavicle rclavicle
    lowerneck upperneck
    upperneck head
    lclavicle lhumerus
    lhumerus lradius
    lradius lwrist
    lwrist lhand lthumb
    lhand lfingers
    rclavicle rhumerus
    rhumerus rradius
    rradius rwrist
    rwrist rhand rthumb
    rhand rfingers
  end

#!OML:ASF E:\I on waltz\Acrobat_Osman\acrobat\cartwheel_test 2\Patient 1\Session 1\acrobat.ASF
:FULLY-SPECIFIED
:DEGREES
148
root 13.3382 15.4434 6.37257 -168.158 -1.95998 178.803
lowerback 7.17199 1.53083 -3.81352
upperback -0.459889 1.76382 1.45335
thorax -4.6687 0.979835 3.46098
lowerneck -7.13962 9.71747 4.2349
upperneck 5.92953 13.2418 -8.86829
head 3.81228 6.23367 -2.56942
rclavicle -3.18055e-015 0
rhumerus -49.3834 0.549195 -22.8445
rradius 36.711
rwrist -4.18564
rhand -24.1111 23.8516
rfingers 7.12502
rthumb 2.37009 -6.11497
lclavicle -3.18055e-015 0
lhumerus -31.1546 3.32372 67.8732
lradius 80.3038
lwrist 45.5577
lhand -28.0351 42.5463
lfingers 7.12502
lthumb -1.4198 72.5213
rfemur -26.3647 -2.43956 21.8334
rtibia 52.2339
rfoot -21.1577 -1.47678
rtoes -15.599
lfemur -33.0314 -17.4415 1.72939
ltibia 35.7262
lfoot -23.3236 32.4975
ltoes 3.0742
149
root 13.3651 15.3547 6.55669 -167.94 -6.55249 177.713
lowerback 7.40018 1.3665 -4.35645
upperback -0.211694 1.44343 0.484292
thorax -4.49722 0.812309 2.79091
lowerneck -6.70634 9.93699 4.33691
upperneck 5.73281 13.5247 -8.82232
head 3.70349 6.40189 -2.57515
rclavicle -7.55382e-015 -4.37326e-015
rhumerus -47.8882 -1.179 -22.6164
rradius 37.7545
rwrist -5.1621
rhand -24.3065 24.0873
rfingers 7.12502
rthumb 2.18137 -5.88132
lclavicle -7.55382e-015 -4.37326e-015
lhumerus -32.3568 5.26435 64.7154
lradius 80.1415
lwrist 45.5047
lhand -27.7237 41.6652
lfingers 7.12502
lthumb -1.1191 71.642
rfemur -28.1946 -4.29823 21.3978
rtibia 54.719
rfoot -21.796 -3.1174
rtoes -16.3753
lfemur -30.3742 -15.9815 2.27252
ltibia 35.1016
lfoot -18.3884 30.946
ltoes -1.70725
150
root 13.3608 15.2828 6.71856 -167.669 -10.6993 176.865
lowerback 7.3997 1.26462 -4.63098
upperback 0.0559036 1.24372 -0.20138
thorax -4.19228 0.693804 2.25769
lowerneck -6.2081 10.0642 4.31867
upperneck 5.66662 13.7158 -9.03041
head 3.62876 6.50325 -2.64594
rclavicle 8.34896e-015 1.27222e-014
rhumerus -46.0648 -2.51782 -22.5386
rradius 39.318
rwrist -6.9494
rhand -24.7866 24.2822
rfingers 7.12502
rthumb 1.71772 -5.69064
lclavicle 8.34896e-015 1.27222e-014
lhumerus -33.9306 7.17603 61.6547
lradius 79.3482
lwrist 45.657
lhand -26.8757 41.1042
lfingers 7.12502
lthumb -0.300065 71.0837
rfemur -29.6552 -5.58182 20.8378
rtibia 56.8157
rfoot -22.4081 -4.38849
rtoes -18.0303
lfemur -27.6168 -16.001 3.25989
ltibia 34.3458
lfoot -15.894 31.136
ltoes -2.42718
151
root 13.3375 15.2189 6.86754 -167.356 -14.3764 176.445
lowerback 7.21172 1.21208 -4.73992
upperback 0.333179 1.15583 -0.541329
thorax -3.78684 0.630403 1.98203
lowerneck -6.13902 10.1254 4.18353
upperneck 5.83124 13.839 -9.31036
head 3.68735 6.54327 -2.69819
rclavicle 1.68967e-014 1.98785e-016
rhumerus -43.725 -3.42755 -22.7044
rradius 41.1271
rwrist -8.99419
rhand -25.7036 24.5001
rfingers 7.12502
rthumb 0.83201 -5.478
lclavicle 1.68967e-014 1.98785e-016
lhumerus -35.6881 9.37868 58.8042
lradius 77.9223
lwrist 45.7494
lhand -26.5661 41.5402
lfingers 7.12502
lthumb -0.00105046 71.5199
rfemur -30.7842 -6.32926 20.5819
rtibia 58.3108
rfoot -23.0355 -5.7528
rtoes -19.5945
lfemur -24.8937 -17.7989 4.82182
ltibia 33.7963
lfoot -16.0104 33.6753
ltoes 0.930293
152
root 13.3017 15.1679 7.00218 -167.052 -17.588 176.217
lowerback 6.962 1.25848 -4.73633
upperback 0.56395 1.21712 -0.843172
thorax -3.40489 0.642109 1.66813
lowerneck -6.30386 10.1224 4.23886
upperneck 6.01876 13.862 -9.58908
head 3.79744 6.53133 -2.77269
rclavicle 4.04278e-014 -2.06736e-014
rhumerus -41.3367 -4.12696 -23.1649
rradius 43.022
rwrist -10.4916
rhand -26.696 25.0677
rfingers 7.12502
rthumb -0.126496 -4.91201
lclavicle 4.04278e-014 -2.06736e-014
lhumerus -37.5488 11.3438 55.8208
lradius 75.7847
lwrist 45.1797
lhand -26.9002 42.7421
lfingers 7.12502
lthumb -0.323655 72.7216
rfemur -31.5403 -6.92265 20.4901
rtibia 59.226
rfoot -23.6941 -7.29877
rtoes -21.0243
lfemur -22.1526 -20.3581 6.30039
ltibia 33.3561
lfoot -23.8604 35.9328
ltoes 17.7901
153
root 13.2591 15.1367 7.12549 -166.704 -20.3987 175.862
lowerback 6.74316 1.46274 -4.98196
upperback 0.686939 1.46936 -1.10563
thorax -3.17085 0.758274 1.51507
lowerneck -6.33674 10.0421 4.24541
upperneck 6.10031 13.7752 -9.82436
head 3.83962 6.47304 -2.84572
rclavicle -6.47044e-014 2.08227e-014
rhumerus -39.1659 -4.36974 -23.6506
rradius 45.0179
rwrist -11.604
rhand -27.607 25.8457
rfingers 7.12502
rthumb -1.00638 -4.13165
lclavicle -6.47044e-014 2.08227e-014
lhumerus -39.4842 12.8264 53.0928
lradius 73.5655
lwrist 44.3736
lhand -28.7259 42.0501
lfingers 7.12502
lthumb -2.087 72.0196
rfemur -31.9276 -7.29792 20.2023
rtibia 59.6179
rfoot -24.4804 -8.88472
rtoes -21.7646
lfemur -19.6516 -20.202 6.72053
ltibia 32.9712
lfoot -20.611 41.3905
ltoes 9.91063
154
root 13.2108 15.1149 7.25586 -166.214 -23.2572 175.335
lowerback 6.62076 1.70246 -5.3459
upperback 0.720794 1.7536 -1.36161
thorax -3.08896 0.896433 1.42951
lowerneck -6.37273 9.8771 4.23158
upperneck 6.19014 13.5656 -9.89405
head 3.86218 6.36252 -2.87666
rclavicle 7.42336e-014 5.46658e-015
rhumerus -37.411 -4.26357 -24.2034
rradius 47.1951
rwrist -12.809
rhand -28.2805 26.5127
rfingers 7.12502
rthumb -1.65687 -3.46057
lclavicle 7.42336e-014 5.46658e-015
lhumerus -41.0763 14.4038 50.4738
lradius 70.8764
lwrist 42.4861
lhand -28.7813 42.2875
lfingers 7.12502
lthumb -2.14053 72.2565
rfemur -32.121 -7.53955 19.6783
rtibia 59.653
rfoot -25.2578 -10.4512
rtoes -21.5379
lfemur -17.6895 -19.754 7.00617
ltibia 32.5635
lfoot -23.4446 41.9563
ltoes 19.0714
155
root 13.1575 15.1148 7.3929 -165.511 -26.4737 174.642
lowerback 6.55232 1.77701 -5.78535
upperback 0.790358 1.81853 -1.4769
thorax -2.99325 0.927116 1.55222
lowerneck -6.65428 9.77453 4.12039
upperneck 6.18324 13.4434 -10.0128
head 3.89928 6.28546 -2.8909
rclavicle 4.13969e-014 5.11871e-015
rhumerus -35.609 -4.10608 -24.8029
rradius 49.4097
rwrist -14.1122
rhand -28.9815 27.0805
rfingers 7.12502
rthumb -2.33381 -2.88644
lclavicle 4.13969e-014 5.11871e-015
lhumerus -42.3809 16.3932 48.1071
lradius 68.3485
lwrist 41.5024
lhand -29.5073 42.5692
lfingers 7.12502
lthumb -2.84165 72.53
rfemur -32.185 -7.94523 18.9506
rtibia 59.3768
rfoot -25.871 -11.858
rtoes -21.462
lfemur -16.4453 -19.2851 7.31171
ltibia 32.2071
lfoot -22.0494 39.6227
ltoes 24.5205
156
root 13.09 15.1252 7.52707 -164.802 -29.902 174.03
lowerback 6.48608 1.82204 -6.08456
upperback 0.900243 1.87094 -1.3861
thorax -2.85847 0.952133 1.8117
lowerneck -6.95694 9.65005 3.70415
upperneck 6.08908 13.3072 -10.0922
head 3.88985 6.1965 -2.85089
rclavicle 8.87077e-014 -3.8763e-014
rhumerus -33.9821 -3.89664 -25.2656
rradius 51.6445
rwrist -15.3784
rhand -29.6952 27.747
rfingers 7.12502
rthumb -3.02308 -2.21131
lclavicle 8.87077e-014 -3.8763e-014
lhumerus -43.7021 18.3098 46.1574
lradius 66.3539
lwrist 41.4086
lhand -29.43 43.9162
lfingers 7.12502
lthumb -2.76698 73.878
rfemur -32.0281 -8.52777 18.2095
rtibia 58.8945
rfoot -26.2421 -12.7723
rtoes -22.0505
lfemur -15.8795 -18.1246 7.48445
ltibia 31.9344
lfoot -18.641 37.8872
ltoes 26.6891
157
root 13.0053 15.1487 7.6557 -164.314 -33.5921 173.933
lowerback 6.3309 1.96495 -5.68408
upperback 0.900755 2.11833 -1.22783
thorax -2.78096 1.07548 1.73339
lowerneck -6.82512 9.29684 3.34305
upperneck 5.99349 12.8446 -9.96084
head 3.77526 5.97433 -2.80287
rclavicle 1.37161e-014 3.35946e-014
rhumerus -33.1402 -3.48653 -25.6877
rradius 53.8058
rwrist -16.4459
rhand -30.092 28.3274
rfingers 7.12502
rthumb -3.40634 -1.62509
lclavicle 1.37161e-014 3.35946e-014
lhumerus -44.8786 19.1141 44.7111
lradius 65.1667
lwrist 42.5158
lhand -30.816 44.4384
lfingers 7.12502
lthumb -4.10541 74.3786
rfemur -31.6484 -9.23264 17.9149
rtibia 58.1964
rfoot -26.1027 -13.4428
rtoes -23.0228
lfemur -16.0043 -17.4071 7.99489
ltibia 31.8251
lfoot -16.4593 36.3716
ltoes 29.4736
158
root 12.9055 15.1936 7.79457 -163.747 -37.4112 174.191
lowerback 5.93639 2.14994 -4.69623
upperback 0.783648 2.47499 -1.10473
thorax -2.6702 1.25151 1.28846
lowerneck -6.64677 8.80371 3.21287
upperneck 5.9739 12.1772 -9.77171
head 3.67477 5.65988 -2.78554
rclavicle -3.18055e-014 -1.90833e-014
rhumerus -32.3956 -2.67169 -26.2454
rradius 55.5279
rwrist -17.3886
rhand -30.2669 28.783
rfingers 7.12502
rthumb -3.57522 -1.16676
lclavicle -3.18055e-014 -1.90833e-014
lhumerus -45.7751 19.3655 43.429
lradius 64.2252
lwrist 43.2825
lhand -31.9894 44.984
lfingers 7.12502
lthumb -5.23853 74.8993
rfemur -31.4933 -9.86316 17.8575
rtibia 57.2916
rfoot -25.5943 -13.914
rtoes -23.6008
lfemur -16.8201 -17.4908 8.69568
ltibia 31.8689
lfoot -11.7823 35.6653
ltoes 25.5444
159
root 12.7946 15.2504 7.94784 -162.815 -41.2936 174.103
lowerback 5.49123 2.31275 -3.87294
upperback 0.654783 2.78084 -1.02424
thorax -2.53626 1.402 0.901028
lowerneck -6.97905 8.27286 3.08897
upperneck 6.30464 11.4813 -9.5137
head 3.76077 5.3074 -2.71979
rclavicle 7.22582e-014 -1.03368e-014
rhumerus -31.6519 -3.33023 -26.7624
rradius 56.6935
rwrist -16.6482
rhand -29.9309 29.7839
rfingers 7.12502
rthumb -3.25074 -0.171015
lclavicle 7.22582e-014 -1.03368e-014
lhumerus -46.5156 19.6286 42.5155
lradius 63.6306
lwrist 43.7416
lhand -32.3916 44.8766
lfingers 7.12502
lthumb -5.62684 74.7819
rfemur -31.3718 -10.2475 17.3319
rtibia 56.2123
rfoot -25.0203 -14.0066
rtoes -23.4869
lfemur -18.3784 -18.182 8.90166
ltibia 32.0239
lfoot -11.5383 35.3121
ltoes 27.3155
160
root 12.6804 15.3206 8.08722 -162.046 -45.6185 173.52
lowerback 5.51424 2.40232 -3.51781
upperback 0.633624 2.93357 -0.800863
thorax -2.57148 1.47961 0.918763
lowerneck -7.37501 7.66322 2.82153
upperneck 6.84772 10.7015 -9.18692
head 3.90783 4.90415 -2.61236
rclavicle 5.50634e-014 -4.29375e-014
rhumerus -30.8911 -3.60311 -27.2534
rradius 57.5649
rwrist -16.002
rhand -30.1052 30.587
rfingers 7.12502
rthumb -3.419 0.634675
lclavicle 5.50634e-014 -4.29375e-014
lhumerus -47.2903 19.7843 42.101
lradius 63.2635
lwrist 43.452
lhand -32.2447 44.4722
lfingers 7.12502
lthumb -5.48495 74.3812
rfemur -30.128 -10.2734 16.3166
rtibia 54.8904
rfoot -24.3755 -14.2257
rtoes -23.8284
lfemur -19.9822 -18.572 8.42801
ltibia 32.2426
lfoot -9.51714 34.6368
ltoes 24.4653
161
root 12.5595 15.3887 8.21738 -161.606 -50.3123 172.945
lowerback 5.77496 2.49809 -3.14305
upperback 0.693101 3.08994 -0.419089
thorax -2.66372 1.55799 1.07934
lowerneck -7.57364 6.90357 2.54402
upperneck 7.27551 9.71325 -8.89579
head 3.98145 4.40621 -2.53906
rclavicle 2.42517e-014 -1.66979e-014
rhumerus -30.2819 -3.96033 -27.7089
rradius 58.0438
rwrist -15.7125
rhand -30.4872 31.2915
rfingers 7.12502
rthumb -3.78792 1.3454
lclavicle 2.42517e-014 -1.66979e-014
lhumerus -47.864 19.7298 41.844
lradius 62.6173
lwrist 41.5152
lhand -30.6859 44.3747
lfingers 7.12502
lthumb -3.97984 74.3173
rfemur -28.0144 -9.7969 15.309
rtibia 53.4064
rfoot -23.6227 -14.6795
rtoes -24.8617
lfemur -21.5571 -18.2199 7.61599
ltibia 32.4229
lfoot -7.71159 32.893
ltoes 22.3305
